<svg xmlns="http://www.w3.org/2000/svg" width="256" height="64" viewBox="0 0 256 64" fill="none">
  <g fill="#2622F4" stroke="#2622F4" stroke-width="4.5" stroke-linecap="round" stroke-linejoin="round">
    <path stroke="none" d="M8 2v42.5l12.5-13.2L36.4 63l13.5-5-12.6-27.9H64L8 2Z" />
    <path d="M44 4 60 0" />
    <path d="M50 26h20" />
    <path d="M49 44l14 9" />
  </g>
  <path fill="#2622F4" d="M91.3 51.2c-4.5 0-8.2-1.5-11-4.4-2.9-3-4.3-6.8-4.3-11.5 0-4.7 1.4-8.5 4.3-11.5s6.6-4.4 11-4.4c4.8 0 8.7 1.4 11.7 4.1l-3.8 6.2c-2.3-1.8-4.6-2.7-7-2.7-2 0-3.7.7-5.1 2.1-1.4 1.4-2 3.3-2 5.6s.7 4.1 2 5.6c1.4 1.4 3.1 2.1 5.1 2.1 2.5 0 4.9-.9 7.2-2.7l3.7 6.1c-3.1 2.8-6.9 4.3-11.8 4.3Zm26.4-.4c-3.2 0-6-.7-8.6-2.2-2.5-1.5-4.5-3.6-5.9-6.3-1.4-2.7-2.1-5.7-2.1-9.1 0-3.4.7-6.4 2.1-9 1.4-2.7 3.4-4.8 6-6.3 2.6-1.5 5.4-2.3 8.7-2.3 3.2 0 6 .8 8.4 2.3 2.4 1.5 4.3 3.6 5.7 6.2 1.3 2.6 2 5.5 2 8.8 0 .6-.1 1.3-.1 2.2h-24.5c.4 2.3 1.3 4.1 2.7 5.4 1.4 1.4 3.1 2 5.2 2 3.1 0 5.5-1.2 7.3-3.5l6.5 4.8c-3.2 4.8-8.2 7.2-14.8 7.2Zm-4.6-20.7h13.4c-.1-2.1-.8-3.7-1.9-4.9-1.2-1.2-2.6-1.8-4.3-1.8-1.7 0-3.2.6-4.4 1.8-1.2 1.2-2 2.8-2.1 4.9Zm36.8 20.7c-3.2 0-6-.7-8.6-2.2-2.5-1.5-4.5-3.6-5.9-6.3-1.4-2.7-2.1-5.7-2.1-9.1 0-3.4.7-6.4 2.1-9 1.4-2.7 3.4-4.8 6-6.3 2.6-1.5 5.4-2.3 8.7-2.3 3.2 0 6 .8 8.4 2.3 2.4 1.5 4.3 3.6 5.7 6.2 1.3 2.6 2 5.5 2 8.8 0 .6-.1 1.3-.1 2.2H162c.4 2.3 1.3 4.1 2.7 5.4 1.4 1.4 3.1 2 5.2 2 3.1 0 5.5-1.2 7.3-3.5l6.5 4.8c-3.2 4.8-8.2 7.2-14.8 7.2Zm-4.6-20.7h13.4c-.1-2.1-.8-3.7-1.9-4.9-1.2-1.2-2.6-1.8-4.3-1.8-1.7 0-3.2.6-4.4 1.8-1.2 1.2-2 2.8-2.1 4.9Zm50.9 20.7c-3.4 0-6.6-.8-9.5-2.3-2.8-1.5-5-3.6-6.6-6.3-1.6-2.6-2.4-5.6-2.4-9 0-3.4.8-6.4 2.4-9.1 1.6-2.7 3.8-4.8 6.7-6.3 2.8-1.5 6-2.2 9.4-2.2 4 0 7.3.9 9.9 2.8 2.6 1.9 4.5 4.4 5.6 7.6l-8.1 3.4c-.7-1.7-1.6-3-2.8-3.8-1.2-.9-2.6-1.3-4.2-1.3-2.2 0-4 .8-5.4 2.3-1.4 1.5-2.1 3.5-2.1 6s.7 4.5 2.1 6c1.4 1.5 3.2 2.3 5.4 2.3 3.5 0 5.9-1.7 7.3-5.1l8.1 3.3c-1.2 3.3-3.1 6-5.8 7.9-2.7 2-6.1 2.9-10.3 2.9Z"/>
</svg>